# xmcd
#
# Track frame offsets:
# 150
# 18637
# 35722
# 52321
# 71637
# 87478
# 101209
# 116992
# 132137
# 145519
# 160296
#
# Disc length: 2346 seconds
#
#
# Revision: 0
# Processed by: cddbd v1.4PL0 Copyright (c) Steve Scherf et al.
# Submitted via: FreeRIP 2.30 
#
DISCID=a709280b
DTITLE=Lintvern - Zob Casa
DYEAR=1999
DGENRE=Pop
TTITLE0=Se Je Cas
TTITLE1=Zob Casa
TTITLE2=Zbogom - Blues
TTITLE3=Bolecina
TTITLE4=Ce Padel Bi Na Glavo
TTITLE5=Isto Sonce
TTITLE6=Ce Te Srecam
TTITLE7=To Smo Mi
TTITLE8=Posast
TTITLE9=Postavi Se Zase
TTITLE10=Pamet V Roke
EXTD=
EXTT0=
EXTT1=
EXTT2=
EXTT3=
EXTT4=
EXTT5=
EXTT6=
EXTT7=
EXTT8=
EXTT9=
EXTT10=
PLAYORDER=
